<?xml version="1.0" encoding="UTF-8"?>
<svg id="_レイヤー_2" data-name="レイヤー 2" xmlns="http://www.w3.org/2000/svg" viewBox="0 0 34.54 38.83">
  <defs>
    <style>
      .cls-1 {
        fill: #fff;
        stroke-width: 0px;
      }
    </style>
  </defs>
  <g id="_レイヤー_6" data-name="レイヤー 6">
    <g>
      <polygon class="cls-1" points="17.7 4.85 25.69 9.41 17.7 14.42 17.7 19.48 33.98 9.41 17.7 0 17.7 4.85"/>
      <polygon class="cls-1" points=".28 9.41 16.85 0 16.85 4.85 8.42 9.74 16.85 14.42 16.85 19.48 .28 9.41"/>
      <polygon class="cls-1" points="0 10.46 0 29.26 16.85 38.83 16.85 34.97 3.81 27.54 3.85 12.85 0 10.46"/>
      <polygon class="cls-1" points="4.5 13.27 16.85 20.49 16.85 34 13.28 32.04 13.34 21.83 4.5 16.91 4.5 13.27"/>
      <polygon class="cls-1" points="34.54 10.18 34.54 29.54 17.55 38.83 17.7 34.97 30.64 27.98 30.64 12.7 34.54 10.18"/>
      <polygon class="cls-1" points="29.81 12.98 17.7 20.49 17.7 34 21.57 31.93 21.57 21.83 29.81 16.84 29.81 12.98"/>
    </g>
  </g>
</svg>