<?xml version="1.0" encoding="UTF-8"?>
<svg id="_レイヤー_2" data-name="レイヤー 2" xmlns="http://www.w3.org/2000/svg" viewBox="0 0 590.47 105.74">
  <defs>
    <style>
      .cls-1 {
        fill: #fff;
        stroke-width: 0px;
      }
    </style>
  </defs>
  <g id="_レイヤー_12" data-name="レイヤー 12">
    <g>
      <g>
        <path class="cls-1" d="m175.11,95.37c-.18.22-.26.35-.43.66-2.38,4.62-5.83,7.63-10.9,9.52-.18-.76-.34-1.1-.82-1.75,4.4-1.26,7.79-3.99,9.78-7.89h-6.99c-1.09,0-1.37.02-1.87.09l.51-1.91c.5.09.85.1,1.85.1h6.74c.53,0,.78-.01,1.07-.04-.11-.53-.27-.97-.51-1.48l1.18-.4c.37.75.55,1.35.69,2.32l-.65.23.37.54Zm1.14-1.04c-.12-.86-.33-1.61-.65-2.27l1.16-.4c.39.78.59,1.36.69,2.23l-1.2.44Z"/>
        <path class="cls-1" d="m190.26,97.41c-.22.26-.36.47-.66.92-1.34,2.16-2.89,3.78-4.73,4.96-1.26.81-2.35,1.31-4.38,2-.13-.73-.24-.98-.69-1.7,1.91-.45,3.22-1,4.6-1.94,1.33-.91,2.2-1.8,3.28-3.43h-7.15c-.98,0-1.35.01-1.9.07l.48-1.79c.54.09.85.1,1.88.1h6.99c.91,0,1.21-.03,1.69-.13l.58.94Zm-8.95-4.44c.46.09.76.1,1.69.1h5.12c.92,0,1.24-.01,1.75-.1l-.48,1.8c-.44-.06-.71-.07-1.67-.07h-5.18c-.95,0-1.24.01-1.71.07l.48-1.8Z"/>
        <path class="cls-1" d="m192.74,102.73c1.28-.07,3.14-.5,4.64-1.08,2.05-.79,3.72-1.92,5.32-3.59.9-.94,1.52-1.75,2.28-2.93.39.69.56.91,1.17,1.44-1.97,2.68-3.83,4.42-6.19,5.75-1.76,1-3.78,1.71-6.18,2.2-.62.12-.67.13-1.04.25v-2.02Zm3.69-9.11c1.46,1.08,2.19,1.76,3.03,2.83l-1.69,1.6c-.84-1.25-1.78-2.21-2.95-2.98l1.61-1.45Z"/>
        <path class="cls-1" d="m209.23,105.15c.17-.41.3-.81.53-1.64l2.52-9.4c.21-.85.28-1.14.31-1.5h2.01c-.15.4-.24.67-.47,1.54l-.73,2.73c1.55.56,3.87,1.79,5.83,3.1l-1.49,1.73c-.83-.73-2.61-1.86-4.45-2.8-.29-.16-.33-.18-.43-.25-.07.41-.12.66-.21,1l-1.04,3.87c-.21.79-.31,1.2-.38,1.63h-2.01Zm9.2-11.78c.46.69.71,1.25.96,2.16l-1.17.54c-.25-.89-.5-1.48-.96-2.18l1.17-.51Zm1.8,1.78c-.22-.81-.52-1.5-.93-2.13l1.12-.51c.48.67.74,1.23.97,2.07l-1.17.57Z"/>
        <path class="cls-1" d="m231.61,98.92c-.26.97-1.25,1.75-2.21,1.75s-1.54-.78-1.28-1.75,1.25-1.75,2.21-1.75,1.54.78,1.28,1.75Z"/>
        <path class="cls-1" d="m252.08,96.12c-.24.25-.28.29-.6.72-1.33,1.79-2.7,3.02-4.74,4.28-.4-.63-.58-.79-1.15-1.19,1.16-.56,2.1-1.22,2.98-2.07.28-.29.41-.43.79-.87-.25.04-.35.06-.58.09-1.53.18-3.09.37-4.68.59l-.88,3.3q-.26,1.01-.28,1.26c-.05.57.38.73,1.87.73,1.69,0,3.34-.21,4.66-.57l-.44,1.98c-.4.01-.52.01-.91.06-1.63.18-2.74.25-3.71.25-1.19,0-2.03-.09-2.55-.25-.55-.18-.91-.72-.9-1.35,0-.45.03-.67.35-1.85l.9-3.36-1.43.18q-1.18.15-1.7.28l.3-1.82c.16.01.27.01.35.01.26,0,.91-.04,1.32-.1l1.61-.19.54-2.01c.2-.73.22-.89.28-1.39h2.03c-.19.42-.29.73-.45,1.36l-.5,1.85,5.52-.65c.8-.09.82-.1,1.2-.25l.83.97Z"/>
        <path class="cls-1" d="m259.66,92.97c-.17.4-.28.76-.48,1.48l-2.32,8.38c1.6-.29,3.13-.85,4.44-1.61,1.6-.92,2.78-1.94,3.89-3.36.37.76.5.97.99,1.5-1.43,1.55-2.63,2.54-4.19,3.42-1.73.98-3.38,1.55-5.88,2.01-.42.07-.61.13-.95.25l-.64-1.13c.21-.4.31-.66.54-1.51l2.18-7.92q.27-1.03.33-1.51h2.08Z"/>
        <path class="cls-1" d="m282.16,95.11c-.21.22-.3.35-.6.88-1.27,2.23-2.85,4.21-4.53,5.66-1.76,1.54-3.68,2.68-6.22,3.73-.21-.73-.34-.98-.83-1.54,1.63-.6,2.57-1.04,3.68-1.73,2.52-1.55,4.43-3.56,5.95-6.19l-4.44.07c-1.28,1.42-2.76,2.68-4.44,3.75-.28-.6-.45-.79-1.09-1.26,1.98-1.14,3.35-2.32,4.94-4.25.68-.84,1.07-1.41,1.27-1.94l1.9.4q-.12.13-.37.45-.06.07-.3.41-.07.09-.29.38t-.36.47c.2-.02.43-.03.71-.03l3.23-.04c.57,0,.74-.03,1.11-.15l.69.92Z"/>
        <path class="cls-1" d="m285.78,105.15c.2-.47.32-.87.53-1.64l2.52-9.4c.19-.72.26-1.1.31-1.5h2.01c-.18.44-.23.63-.47,1.54l-.73,2.73c1.82.7,3.84,1.77,5.83,3.1l-1.49,1.73c-.99-.84-2.3-1.67-4.45-2.8-.29-.16-.33-.18-.43-.25-.07.41-.1.59-.21,1l-1.04,3.87c-.2.76-.29,1.14-.38,1.63h-2.01Z"/>
        <path class="cls-1" d="m299.7,102.97c1.12-.01,2.81-.37,4.5-.95,2.01-.71,3.51-1.66,5.11-3.23,1.08-1.05,1.77-1.94,2.57-3.24.43.63.6.82,1.18,1.3-1.11,1.63-2,2.64-3.2,3.71-2.44,2.14-5.28,3.45-9.09,4.17-.56.1-.77.15-1.09.23l.02-2Zm2.42-6.57c1.35.6,2.33,1.17,3.37,1.99l-1.35,1.66c-.94-.87-2.06-1.57-3.4-2.16l1.38-1.5Zm2.08-3.55c1.35.59,2.37,1.14,3.4,1.89l-1.37,1.61c-1.1-.89-2.22-1.58-3.38-2.02l1.35-1.48Z"/>
        <path class="cls-1" d="m316.72,104.73c-.73,0-.96.01-1.34.06l.44-1.63c.38.07.72.1,1.29.1h5.64l.59-2.21h-5.11c-.73,0-.96.01-1.34.06l.43-1.6c.38.07.71.1,1.29.1h5.11l.55-2.04h-5.49c-.72,0-.94.01-1.34.06l.44-1.63c.39.07.71.1,1.29.1h5.78c.53,0,.94-.01,1.38-.06-.17.53-.28.89-.46,1.54l-1.8,6.72c-.15.56-.19.78-.24,1.11h-1.69l.18-.69h-5.62Z"/>
        <path class="cls-1" d="m334,96.06c.31,1.13.42,1.83.51,3.47l-1.8.53c.01-1.48-.07-2.26-.39-3.55l1.68-.45Zm8.4.1c-.15.22-.2.29-.41.75-.96,2-2.05,3.61-3.33,4.88-1.48,1.48-2.96,2.43-5.42,3.53-.21-.65-.33-.87-.79-1.45,1.13-.4,1.82-.72,2.86-1.35,2.05-1.25,3.44-2.74,4.7-5.09.38-.72.59-1.23.72-1.69l1.68.41Zm-5.11-.7c.39,1.45.5,2.1.52,3.37l-1.77.51c.02-1.11-.12-2.24-.41-3.45l1.66-.44Z"/>
        <path class="cls-1" d="m356.17,93.83c.44,0,.62-.01.87-.03.27-.95,1.2-1.7,2.14-1.7s1.5.76,1.25,1.69c-.25.94-1.22,1.7-2.16,1.7-.09,0-.17-.01-.27-.03-2.47,4.79-5.87,7.79-11.03,9.72-.18-.76-.34-1.1-.82-1.74,4.4-1.26,7.79-3.99,9.78-7.89h-6.99c-1.09,0-1.37.01-1.87.09l.51-1.91c.51.09.85.1,1.85.1h6.74Zm1.61-.04c-.14.53.17.97.69.97s1.09-.44,1.23-.97c.14-.53-.17-.95-.71-.95s-1.07.42-1.21.95Z"/>
        <path class="cls-1" d="m368.43,96.88c-.59,0-.8.02-1.2.04l.18-.66c-.76.48-.98.6-1.65.94-.11-.51-.14-.65-.24-.91-.23-.01-.33-.01-.51-.01h-.38c.09.85.32,1.53.84,2.49-.42.46-.71.85-1.05,1.39-.33-1.03-.32-1.04-.47-1.98-.07.44-.22,1.08-.45,1.95l-1.02,3.8c-.21.78-.33,1.33-.39,1.8h-1.67c.18-.47.37-1.06.57-1.8l.81-3.04c.13-.48.36-1.22.6-1.92-.76,1.3-.84,1.45-1.27,2.07-.1.16-.43.6-.97,1.33-.09-.76-.19-1.11-.42-1.57,1.07-1.1,2.45-3.08,3.15-4.53h-.59c-.44,0-.72.01-1,.06l.43-1.6c.27.04.5.06.97.06h.73l.31-1.14c.2-.76.28-1.16.33-1.54h1.66c-.17.41-.29.82-.48,1.52l-.31,1.16h.44c.35,0,.55-.02.81-.06l-.22.84c.62-.34,1.25-.72,1.89-1.19.97-.72,1.58-1.28,2.29-2.14h1.63c.22.7.55,1.22,1.22,1.89.67.67,1.32,1.11,2.18,1.51-.46.47-.8.89-1.15,1.45-.54-.32-.88-.54-1.37-.95l-.21.78c-.33-.03-.59-.04-1.18-.04h-.78l-.24.91h1.94c.6,0,.91-.01,1.3-.04-.15.44-.24.75-.35,1.13l-.48,1.8c-.13.5-.17.7-.25,1.11-.41-.04-.76-.06-1.36-.06h-1.51c.55,1.22,1.66,2.01,3.28,2.39-.56.56-.91,1-1.23,1.57-1-.38-1.89-1-2.48-1.72-.42-.51-.64-.95-.82-1.54-1.14,1.55-2.59,2.55-4.8,3.24-.1-.66-.21-1.01-.53-1.48,2.02-.41,3.17-1.08,4.21-2.46h-1.14c-.57,0-.93.01-1.37.06.13-.38.21-.6.29-.94l.56-2.1c.11-.41.16-.65.23-1.01.37.04.53.04,1.25.04h1.79l.24-.91h-.59Zm-1.55,2.16l-.38,1.44h1.41c.19-.44.26-.65.5-1.44h-1.53Zm4.74-3.5h.35c-.62-.63-.95-1.13-1.32-2-.8.87-1.41,1.42-2.19,2h3.16Zm-1.75,3.5c-.21.66-.32.98-.52,1.44h1.88l.38-1.44h-1.75Z"/>
        <path class="cls-1" d="m379.58,102.91c-1.36,1.13-2.48,1.79-4.26,2.52-.26-.62-.47-.92-.85-1.3.94-.26,1.53-.5,2.37-.94.72-.38,1.06-.62,1.64-1.13l1.11.85Zm-3.8-2.54c.44.07,1.25.1,2.54.1q.35,0,2.05-.03l.18-.12c-.98-.82-1.52-1.22-2.42-1.76l1.24-1.16c.43.26.6.38.86.57.53-.43.8-.67,1.2-1.08h-3.13l-.45,1.69h-1.67c.14-.35.23-.65.33-1.01l.28-1.06c.14-.53.18-.72.24-1.04.53.04.94.06,1.54.06h3.86l.26-.95h-3.79c-.85,0-1.31.02-1.8.07l.42-1.57c.4.06.97.09,1.77.09h3.77l.02-.09c.09-.32.14-.63.17-.95h1.82c-.16.32-.27.62-.36.95l-.02.09h4.01c.81,0,1.4-.03,1.83-.09l-.42,1.57c-.41-.04-.99-.07-1.75-.07h-4.04l-.26.95h4.1c.69,0,1.13-.01,1.59-.06-.11.31-.17.46-.3.97l-.3,1.11c-.11.43-.18.73-.22,1.04h-1.69l.46-1.7h-4.4c-.72.72-1.28,1.2-2.07,1.85.29.23.38.29.74.63,1.21-.89,1.96-1.55,2.54-2.24l1.47.71c-.18.13-.33.25-.59.45-1.03.85-1.98,1.54-2.9,2.11,1.15-.03,1.42-.04,3.18-.15-.21-.31-.33-.47-.67-.91l1.42-.79c.8,1.01,1.45,1.99,1.96,3.04l-1.53.98c-.24-.57-.33-.78-.48-1.1q-2.59.21-3.92.26l-.66,2.48c-.18.69-.25,1.04-.29,1.48h-1.88c.19-.43.3-.78.49-1.48l.64-2.41c-2.99.13-3,.13-3.63.13-.88.01-1.15.03-1.55.09l.24-1.66Zm8.59,1.48c1.15,1.08,1.98,1.61,3.34,2.1-.64.53-.95.82-1.47,1.44-1.21-.62-1.96-1.17-3.31-2.51l1.43-1.03Z"/>
        <path class="cls-1" d="m400.53,95.46l.19-.66.13-.47c.26-.97.33-1.29.36-1.63h1.89c-.14.34-.17.41-.32.98q-.24.89-.49,1.77h.94c1.04,0,1.34-.01,1.94-.1l-.48,1.79c-.5-.06-.89-.07-1.86-.07h-.98c-.5,1.76-.53,1.86-.75,2.42-.71,1.88-1.67,3.12-3.24,4.21-.97.68-1.8,1.06-3.28,1.54-.11-.63-.23-.91-.68-1.55,1.51-.43,2.31-.78,3.18-1.39,1.23-.87,1.92-1.83,2.5-3.52.12-.34.21-.69.51-1.7h-3.8l-.59,2.2c-.17.62-.21.85-.27,1.23h-1.91c.13-.32.25-.72.4-1.26l.58-2.17h-.9c-.97,0-1.37.02-1.9.07l.48-1.79c.55.09.84.1,1.88.1h.87l.39-1.47c.17-.62.23-.92.28-1.3h1.92c-.19.48-.2.51-.4,1.26l-.4,1.51h3.82Z"/>
        <path class="cls-1" d="m419.91,93.76c-.31.22-.4.28-.68.51-1.41,1.14-2.76,2.1-4.27,3.02l-1.68,6.26c-.22.81-.32,1.23-.36,1.63h-2.05c.19-.42.28-.72.51-1.58l1.38-5.16c-1.99,1.03-2.92,1.41-5.88,2.38-.1-.76-.2-1.01-.54-1.67,3.12-.79,5.91-2.01,8.73-3.81,1.58-1.01,2.85-2.02,3.47-2.74l1.37,1.17Z"/>
        <path class="cls-1" d="m423.11,105.15c.2-.47.32-.87.53-1.64l2.52-9.4c.19-.72.27-1.1.31-1.5h2.01c-.18.44-.23.63-.47,1.54l-.73,2.73c1.82.7,3.84,1.77,5.84,3.1l-1.49,1.73c-.99-.84-2.3-1.67-4.45-2.8-.29-.16-.33-.18-.43-.25-.07.41-.1.59-.21,1l-1.04,3.87c-.2.76-.29,1.14-.38,1.63h-2.01Z"/>
      </g>
      <g>
        <path class="cls-1" d="m12.21,58.05q-1.31.51-2.56.95l-2.64,9.84c-.46,1.73-1.09,2.51-2.34,2.92-.78.24-1.93.41-3.03.41-.45,0-.81,0-1.64-.07.24-1.49.28-2.14.21-3.56.97.14,1.6.2,2.35.2.84,0,1.09-.2,1.31-1.02l1.99-7.43c-1.03.34-1.11.37-1.99.65-.53.17-.97.34-1.51.54l.29-3.77c1-.1,1.77-.31,4.16-.98l1.64-6.11h-1.27c-.84,0-1.57.03-2.38.14l.97-3.63c.74.13,1.38.2,2.35.2h1.2l.75-2.78c.43-1.59.61-2.41.73-3.46h3.83c-.44,1.05-.69,1.87-1.11,3.43l-.75,2.82h1.04c.62,0,1.02-.03,1.45-.07l.75-2.78c.25-.95.4-1.63.53-2.34.79.1,1.59.14,3.08.14h13.51c1.56,0,2.38-.03,3.22-.14-.25.68-.42,1.19-.71,2.27l-.47,1.76c-.28,1.05-.4,1.63-.49,2.31h-3.44l.79-2.95h-2.76l-1.37,5.12c-.16.61.04.71,1.5.71,2.14,0,2.23-.07,2.93-2.34.99.44,1.4.58,2.53.75-1.44,4.17-2.2,4.68-6.78,4.68-1.95,0-2.76-.14-3.4-.51-.23.51-.42,1.08-.64,1.9l-.38,1.42h5.65c1.33,0,2.32-.07,3.37-.2l-.99,3.7c-1.1-.14-2.03-.17-3.2-.17h-3.93c.57,1.26,1.53,2.65,2.61,3.73,1.04,1.09,2.16,1.87,3.74,2.65-.96,1.05-1.52,1.8-2.67,3.53-2.96-1.93-4.71-4.1-6.15-7.6-.13.48-.19.85-.26,1.09-.19.81-.23.98-.47,1.87l-.97,3.63c-.31,1.15-.44,1.9-.56,2.82h-3.77c.4-1.02.69-1.83.97-2.88l1.03-3.83c.2-.75.59-2.07.77-2.65-2.84,3.19-5.74,5.43-9.82,7.57-.36-1.46-.62-2.07-1.28-3.09,3.7-1.56,7.32-4.04,9.82-6.82h-2.73c-1.43,0-2.35.03-3.33.17l.73-2.71Zm.82-.88c.79.07,1.6.1,2.83.1h4.42l.24-.88c.32-1.19.44-1.9.52-2.68h3.41c-.26-.37-.25-.78-.03-1.59l1.76-6.58h-1.79c-.62,1.97-.82,2.44-1.31,3.43-1.57,2.95-4.13,5.12-8.08,6.75-.36-1.19-.66-1.8-1.34-2.75,2.33-.68,4.05-1.66,5.31-2.95,1.11-1.12,1.78-2.41,2.4-4.48h-2.5l-.9,3.36h-2.76l-.49,1.83c-.57-.07-1.04-.1-1.76-.1h-1.07l-1.34,4.99c1.18-.41,1.58-.54,3.09-1.12l-.62,2.68Z"/>
        <path class="cls-1" d="m50.71,42.4c-.46.98-.79,1.97-1.62,4.58-.98,3.16-3.02,10.04-3.66,12.45-.86,3.22-1,4.44-.62,5.46.45,1.12,1.83,1.76,3.88,1.76,3.51,0,6.89-2.07,9.42-5.8,1.19-1.76,2.04-3.36,3.02-5.7,1.35,1.49,1.84,1.87,3.23,2.61-2.53,4.58-4.09,6.79-6.18,8.65-3.21,2.88-6.81,4.31-10.9,4.31-2.24,0-4.18-.54-5.29-1.49-1.82-1.56-2.07-4.17-.85-8.72.47-1.76,1.45-5.16,3.92-13.67.3-1.02.5-1.73.62-2.21.25-.95.35-1.42.49-2.31l4.53.07Z"/>
        <path class="cls-1" d="m74.96,45.87c.71.03,1.06.03,1.23.03q.58,0,5.45-.34c1.85-.1,7.32-.41,16.44-.85,2.7-.14,3.2-.17,3.83-.34l-.94,4.34q-.35-.03-.67-.03c-1.95,0-4.54.68-6.92,1.83-4.73,2.24-8.07,5.63-8.99,9.06-.71,2.65.34,4.68,2.84,5.53,1.46.51,3.43.88,4.6.88.03,0,.32,0,.66-.03l-1.82,4.61c-.36-.1-.52-.14-1.05-.2-3.45-.47-5.33-1.08-7-2.24-2.52-1.76-3.4-4.65-2.46-8.18.77-2.88,2.64-5.73,5.23-8.01,1.61-1.39,3.01-2.27,5.42-3.39-2.74.41-4.04.51-11.23,1.05-2.22.17-4.24.41-5.57.68l.95-4.41Z"/>
        <path class="cls-1" d="m116.48,55.43c3.28-1.22,4.8-1.56,7.24-1.56,5.55,0,8.33,2.99,7.08,7.63-.86,3.22-3.08,5.8-6.43,7.5-2.45,1.26-5.39,1.93-8.38,1.93-2.73,0-4.86-.54-5.88-1.56-.98-.95-1.31-2.38-.9-3.9.75-2.82,3.64-4.85,6.89-4.85,2.27,0,3.99.98,4.87,2.78.42.85.58,1.59.68,3.05,2.98-1.05,4.54-2.51,5.18-4.92.71-2.65-1.33-4.38-5.26-4.38-4.74,0-10.02,2-14.91,5.7l-1.23-3.66c1.29-.58,2.84-1.49,5.44-3.19,3.67-2.41,8.91-6.21,12.08-8.82.08-.07.5-.41.75-.61l-.02-.03c-1.28.17-3.4.31-9.35.58-.72.03-.96.07-1.61.17l.93-4.07c1.07.14,1.99.2,3.78.2,2.76,0,6.77-.17,9.99-.41,1.16-.1,1.54-.17,2.13-.44l1.21,2.99c-.63.31-.92.51-2.06,1.39-2.04,1.56-5,3.77-6.37,4.75-.72.51-3.55,2.34-4.32,2.78q-.97.58-1.57.88l.05.07Zm-1.29,8.45c-1.17,0-2.08.61-2.33,1.56-.36,1.36.89,2.14,3.29,2.14.62,0,.78,0,1.73-.14.04-2.34-.87-3.56-2.68-3.56Z"/>
      </g>
      <g>
        <path class="cls-1" d="m335.2,43.46c-.43.98-1.03,2.37-1.84,4.21q-.25.58-.47,1.02c.98-.03,1.45-.07,2.03-.07,2.14,0,3.57.61,4.33,1.8.76,1.29.75,2.92-.08,6.01-1.56,5.83-3.75,10.48-5.81,12.35-1.21,1.12-2.29,1.53-4.01,1.53-1.49,0-2.75-.27-4.73-1.02.21-.65.37-1.15.47-1.49.24-.88.35-1.56.45-2.88,1.54.81,3.24,1.36,4.38,1.36.94,0,1.63-.65,2.57-2.31.99-1.76,2.14-4.85,2.92-7.74.84-3.12.33-4.04-2.17-4.04-.68,0-1.21.03-1.98.1-3.46,6.95-6.02,11.06-11.57,18.46l-3.19-2.17c3.46-3.56,7.59-9.67,10.81-15.98q-.51.07-1.6.27l-3.09.51c-.55.1-.93.2-1.42.34l.68-4c1.47-.03,3.21-.2,7.11-.71,1.63-3.77,2.37-5.7,2.68-6.85.04-.14.09-.34.16-.61l4.1.44c-.17.27-.39.71-.54,1.05l-.18.44Zm10.25-1.39c1,1.59,1.53,2.88,2.07,4.99l-2.61,1.26c-.52-2.07-1.06-3.43-2.06-5.05l2.59-1.19Zm1.22,6.72c1.38,3.22,2.09,6.89,1.98,10.79l-4.22,1.93c.3-3.56-.37-8.55-1.5-11.03l3.74-1.7Zm2.71-2.61c-.47-1.87-1.12-3.46-2-4.92l2.49-1.19c1.04,1.56,1.61,2.85,2.1,4.78l-2.6,1.32Z"/>
        <path class="cls-1" d="m374.67,54.01c-.04.14-.08.41-.19.81.3,1.56.25,2.95-.24,4.78-.99,3.7-3.54,6.89-7.3,9.16-1.63.98-3.31,1.7-6.62,2.78-.35-2.1-.53-2.61-1.28-3.83,2.81-.54,4.27-1.02,6.05-1.97,2.56-1.32,4.33-3.05,5.1-4.95-1.36,1.56-3.28,2.41-5.42,2.41-1.49,0-2.56-.37-3.44-1.22-1.22-1.15-1.53-2.65-1.01-4.58.96-3.6,4.35-6.17,8.12-6.17,1.4,0,2.53.37,3.11,1.02q.01-.17.08-.41c-.01-.07.5-1.97.74-2.88-4.68.13-7.76.24-9.22.34q-5.01.37-5.92.51l.95-4.04c.7.07.99.07,1.57.07.81,0,1.33,0,5.57-.17,2.13-.07,2.45-.07,5.14-.14q1.08-.03,2.79-.1.83-3.22.9-4.11l4.1-.03c-.41,1.05-.43,1.12-1.24,4.04,5.66-.03,8.21-.1,9.45-.24l-1.01,3.9c-1.17-.1-2.71-.17-5.41-.17-.78,0-1.36,0-3.95.07l-.59,2.21-.81,2.92Zm-6.72.34c-1.66,0-3.35,1.22-3.75,2.71-.42,1.56.42,2.68,2.04,2.68,1.85,0,3.53-1.29,4-3.05.38-1.42-.51-2.34-2.3-2.34Z"/>
        <path class="cls-1" d="m414.29,43.86c-.94.61-1.11.75-6.18,4.65-1.82,1.32-5.34,3.7-8.29,5.6-1.22.78-1.53,1.09-1.62,1.46-.14.51-.08.54,2.17,2.82,3.85,3.83,4.96,5.12,7.87,8.82.26.37.38.51.72.85l-4.3,3.56c-1.13-2.68-4.39-6.79-9.42-11.88-1.67-1.76-2.02-2.65-1.6-4.21.27-1.02.88-1.97,1.82-2.78.54-.44.59-.51,3.5-2.41,5.39-3.49,10.82-7.63,12.41-9.47l2.94,2.99Zm-2.26,5.16c.97,1.59,1.53,2.88,2.08,4.99l-2.61,1.26c-.55-2.07-1.1-3.43-2.06-5.06l2.59-1.19Zm3.94,4.11c-.47-1.87-1.12-3.46-2-4.92l2.49-1.19c1.04,1.56,1.61,2.85,2.1,4.78l-2.6,1.32Z"/>
        <path class="cls-1" d="m423.91,70.19c.13-.61.15-.81.27-1.59.48-4.11.96-6.72,1.87-10.14,1.17-4.38,2.6-8.25,4.89-13.27.87-1.9,1.02-2.24,1.33-3.16l4.16.47c-1.32,2-3.08,5.8-4.76,10.14-1.01,2.54-1.67,4.55-2.5,7.5-.2.75-.31,1.02-.57,1.87.68-1.19.81-1.43,2.89-4.48l2.27,1.22c-2.84,3.94-5,7.87-5.65,10.28-.05.2-.13.48-.21.92l-3.99.24Zm17.43-13.4c-2.15,1.97-3.22,3.43-3.62,4.89-.52,1.93,1,2.95,4.38,2.95,2.86,0,5.81-.47,8.08-1.29l-.83,4.31c-.46.03-.6.07-1.39.2-2.72.44-4.75.65-6.9.65-4.03,0-6.37-.95-7.26-2.95-.39-.85-.41-2.1-.08-3.33.59-2.21,2.17-4.48,4.86-6.99l2.77,1.56Zm-2.35-11.23c1.35.41,3.04.54,5.86.54,3.61,0,6.77-.3,9.08-.92l-.91,4.1c-.27.03-.77.1-2.39.31-2.15.27-4.66.41-7.06.41s-2.4,0-5.75-.37l1.16-4.07Z"/>
        <path class="cls-1" d="m465.29,61.95c-1.56,0-2.67.03-3.54.1.39-.99.71-2.04,1.13-3.6l3.32-12.38c.5-1.87.84-3.36.97-4.24.94.14,1.87.17,3.37.17h14.98c1.5,0,2.51-.03,3.49-.17-.32.81-.8,2.38-1.3,4.24l-3.32,12.38c-.44,1.63-.68,2.65-.8,3.6-.83-.07-2.08-.1-3.42-.1h-2.79l-1.4,5.22c-.25.95,0,1.05,2.54,1.05s3.19-.14,3.73-.71c.45-.48.96-1.76,1.75-4.34,1.13.75,1.82,1.08,2.96,1.42-1.33,3.77-2,5.02-3.03,5.84-1.15.88-2.62,1.15-6.29,1.15-5.39,0-6.24-.48-5.56-3.02l1.77-6.62h-2.92c-1.09,2.61-2.68,4.68-4.77,6.28-2.58,2-5.37,3.19-9.34,4.07-.17-1.42-.37-2.14-.99-3.32,3.21-.58,5.09-1.19,6.94-2.24,2.07-1.19,3.41-2.65,4.37-4.78h-1.85Zm.95-3.29h14.65l.65-2.41h-14.65l-.65,2.41Zm1.5-5.6h14.65l.61-2.27h-14.65l-.61,2.27Zm1.46-5.46h14.65l.59-2.21h-14.65l-.59,2.21Z"/>
        <path class="cls-1" d="m497.13,48.38c1.13-.1,1.67-.17,3.98-.68,7.85-1.66,9.68-1.93,13.45-1.93,6.43,0,9.61,3.77,8.07,9.53-1.24,4.61-4.88,8.52-10.12,10.86-3.37,1.53-6.06,2.14-12.19,2.82.07-1.83-.03-2.55-.48-4.38,5.26-.24,8.13-.75,11.22-2,2.63-1.09,5.07-3.02,6.25-5.02.41-.68.77-1.53,1-2.41.5-1.87.03-3.49-1.29-4.41-.88-.61-2.16-.92-3.95-.92-3.38,0-7.78.78-13.44,2.41-1.79.51-2.07.58-2.85.95l.35-4.82Z"/>
        <path class="cls-1" d="m545.71,41.76c-.18.31-.38.68-.54,1.05-.18.44-.26.61-.5,1.15q-.29.71-1.42,3.26c-.33.75-.35.81-.56,1.26.96-.07,1.42-.1,2.04-.1,2.14,0,3.57.61,4.33,1.8.76,1.29.74,2.92-.08,6.01-1.56,5.84-3.75,10.48-5.81,12.35-1.21,1.12-2.29,1.53-4.02,1.53-1.49,0-2.75-.27-4.74-.98.21-.68.38-1.15.47-1.49.24-.88.35-1.56.45-2.88,1.54.81,3.25,1.32,4.39,1.32.94,0,1.63-.65,2.57-2.31.99-1.76,2.15-4.85,2.92-7.74.84-3.12.33-4.04-2.23-4.04-.65,0-1.15.03-1.91.1-2.08,4.14-2.65,5.16-3.96,7.36-2.05,3.39-3.5,5.56-6.45,9.53q-.25.34-.76,1.02c-.15.2-.16.24-.41.58l-3.19-2.17c1.34-1.36,3.29-3.8,5.09-6.38,2.29-3.33,3.12-4.75,5.72-9.6-1.71.2-4.95.78-6.11,1.09l.68-4c1.2,0,5.24-.41,7.1-.68,1.57-3.67,2.38-5.73,2.68-6.85.04-.14.1-.37.17-.64l4.1.47Zm9.59,4.34c2.18,3.97,3.15,8.01,3.15,13.23l-4.23,1.97c.17-2.92.02-5.16-.54-7.7-.5-2.51-1.12-4.07-2.18-5.8l3.8-1.7Z"/>
        <path class="cls-1" d="m575.85,55.13c3.28-1.22,4.8-1.56,7.24-1.56,5.55,0,8.33,2.99,7.08,7.63-.86,3.22-3.08,5.8-6.43,7.5-2.45,1.26-5.39,1.93-8.38,1.93-2.73,0-4.86-.54-5.88-1.56-.98-.95-1.31-2.38-.9-3.9.75-2.82,3.64-4.85,6.89-4.85,2.27,0,3.99.98,4.88,2.78.42.85.58,1.59.68,3.05,2.98-1.05,4.54-2.51,5.18-4.92.71-2.65-1.33-4.38-5.26-4.38-4.74,0-10.02,2-14.91,5.7l-1.23-3.66c1.29-.58,2.84-1.49,5.44-3.19,3.67-2.41,8.91-6.21,12.08-8.82.08-.07.5-.41.75-.61l-.02-.03c-1.28.17-3.39.31-9.35.58-.72.03-.96.07-1.6.17l.93-4.07c1.07.14,1.99.2,3.78.2,2.76,0,6.77-.17,9.98-.41,1.17-.1,1.54-.17,2.13-.44l1.21,2.99c-.63.31-.92.51-2.06,1.39-2.04,1.56-5,3.77-6.37,4.75-.72.51-3.55,2.34-4.32,2.78q-.97.58-1.57.88l.05.07Zm-1.29,8.45c-1.17,0-2.08.61-2.33,1.56-.36,1.36.89,2.14,3.29,2.14.62,0,.78,0,1.73-.14.04-2.34-.87-3.56-2.68-3.56Z"/>
      </g>
      <g>
        <path class="cls-1" d="m142.55,64.7c3.32-.05,8.37-1.14,13.38-2.96,5.99-2.18,10.48-5.14,15.27-10.01,3.23-3.28,5.31-6.01,7.75-10.05,1.26,1.96,1.76,2.55,3.45,4.05-3.36,5.05-6.03,8.19-9.62,11.51-7.31,6.64-15.8,10.69-27.12,12.92-1.65.32-2.3.45-3.24.73l.13-6.19Zm7.42-20.38c3.99,1.87,6.87,3.64,9.93,6.19l-4.08,5.14c-2.77-2.68-6.06-4.87-10.01-6.69l4.16-4.64Zm6.3-11.01c4,1.82,6.98,3.55,10.02,5.87l-4.13,5c-3.22-2.78-6.52-4.91-9.95-6.28l4.06-4.6Z"/>
        <path class="cls-1" d="m191.27,70.16c-2.18,0-2.84.04-3.97.18l1.35-5.05c1.12.23,2.14.32,3.84.32h16.73l1.84-6.87h-15.16c-2.18,0-2.84.05-3.97.18l1.33-4.96c1.12.23,2.09.32,3.83.32h15.16l1.7-6.32h-16.29c-2.13,0-2.8.05-3.97.18l1.35-5.05c1.16.23,2.09.32,3.84.32h17.16c1.57,0,2.8-.04,4.1-.18-.53,1.64-.87,2.77-1.41,4.78l-5.58,20.84c-.46,1.73-.6,2.41-.75,3.46h-5.01l.57-2.14h-16.68Z"/>
        <path class="cls-1" d="m241.17,43.27c.89,3.5,1.18,5.69,1.38,10.78l-5.36,1.64c.1-4.59-.13-7.01-1.01-11.01l5-1.41Zm24.92.32c-.45.68-.59.91-1.23,2.32-2.92,6.19-6.22,11.19-10.07,15.15-4.46,4.6-8.86,7.55-16.22,10.96-.6-2-.94-2.68-2.28-4.5,3.38-1.23,5.43-2.23,8.53-4.19,6.13-3.87,10.3-8.51,14.12-15.79,1.16-2.23,1.81-3.82,2.19-5.23l4.97,1.27Zm-15.14-2.18c1.1,4.5,1.39,6.51,1.42,10.46l-5.26,1.59c.1-3.46-.27-6.96-1.1-10.69l4.94-1.37Z"/>
        <path class="cls-1" d="m305.32,36.35c1.31,0,1.84-.05,2.6-.09.83-2.96,3.64-5.28,6.42-5.28s4.42,2.37,3.65,5.23c-.78,2.91-3.68,5.28-6.47,5.28-.26,0-.51-.04-.8-.09-7.51,14.88-17.71,24.16-33.09,30.17-.5-2.37-.96-3.41-2.38-5.42,13.12-3.91,23.27-12.38,29.3-24.48h-20.74c-3.22,0-4.06.04-5.56.27l1.58-5.92c1.5.27,2.53.32,5.49.32h20Zm4.79-.14c-.44,1.64.46,3,2.03,3s3.24-1.36,3.68-3c.44-1.64-.47-2.96-2.08-2.96s-3.18,1.32-3.62,2.96Z"/>
      </g>
      <g>
        <polygon class="cls-1" points="338.76 16.19 327.25 25.97 337.6 20.37 338.88 23.35 350.03 13.64 340.37 18.93 338.76 16.19"/>
        <polygon class="cls-1" points="324.91 8.15 314.3 25.7 325.22 14.02 328.16 17.32 338.33 0 328.18 10.98 324.91 8.15"/>
      </g>
    </g>
  </g>
</svg>