<?xml version="1.0" encoding="UTF-8"?>
<svg id="_レイヤー_2" data-name="レイヤー 2" xmlns="http://www.w3.org/2000/svg" viewBox="0 0 147.05 23.44">
  <defs>
    <style>
      .cls-1 {
        fill: #fff;
        stroke-width: 0px;
      }
    </style>
  </defs>
  <g id="_レイヤー_12" data-name="レイヤー 12">
    <g>
      <g>
        <polygon class="cls-1" points="10.68 2.93 15.51 5.68 10.68 8.7 10.68 11.76 20.51 5.68 10.68 0 10.68 2.93"/>
        <polygon class="cls-1" points=".17 5.68 10.17 0 10.17 2.93 5.08 5.88 10.17 8.7 10.17 11.76 .17 5.68"/>
        <polygon class="cls-1" points="0 6.32 0 17.66 10.17 23.44 10.17 21.11 2.3 16.63 2.33 7.76 0 6.32"/>
        <polygon class="cls-1" points="2.72 8.01 10.17 12.37 10.17 20.52 8.02 19.34 8.05 13.18 2.72 10.2 2.72 8.01"/>
        <polygon class="cls-1" points="20.85 6.15 20.85 17.83 10.59 23.44 10.68 21.11 18.5 16.89 18.5 7.67 20.85 6.15"/>
        <polygon class="cls-1" points="18 7.84 10.68 12.37 10.68 20.52 13.02 19.27 13.02 13.18 18 10.17 18 7.84"/>
      </g>
      <g>
        <path class="cls-1" d="m39.42,20.41c-.73-.11-1.44-.15-2.88-.15h-5.99c-1.13,0-1.84.02-2.57.06.12-.78.16-1.56.16-2.79V6.57c0-1.46-.04-2.22-.16-3.13h3.06c-.12.87-.16,1.56-.16,3.11v11.16h5.67c1.38,0,2.03-.04,2.88-.15v2.85Z"/>
        <path class="cls-1" d="m54.14,5.21c1.48,1.54,2.27,3.85,2.27,6.6,0,5.35-2.98,8.82-7.57,8.82s-7.55-3.45-7.55-8.82c0-2.73.81-5.07,2.31-6.6,1.4-1.44,3.08-2.11,5.22-2.11s3.95.68,5.33,2.11Zm-.57,6.6c0-2.14-.57-3.85-1.6-4.93-.83-.85-1.9-1.29-3.12-1.29-2.92,0-4.76,2.41-4.76,6.24,0,2.11.59,3.89,1.64,4.99.83.85,1.9,1.29,3.14,1.29,2.9,0,4.7-2.41,4.7-6.3Z"/>
        <path class="cls-1" d="m73.35,15.13c-.38,1.52-.75,2.35-1.36,3.17-1.15,1.48-3.1,2.3-5.53,2.3-2.21,0-3.97-.7-5.2-2.03-1.42-1.54-2.21-3.93-2.21-6.64s.85-5.24,2.37-6.83c1.21-1.29,3.04-2.01,5.06-2.01,1.58,0,2.77.32,3.89,1.01.91.59,1.64,1.37,2.15,2.3.24.44.38.82.63,1.63l-2.81.68c-.28-.93-.47-1.33-.87-1.82-.69-.87-1.7-1.31-2.96-1.31-2.88,0-4.62,2.35-4.62,6.24s1.78,6.28,4.62,6.28c1.42,0,2.63-.57,3.28-1.56.34-.53.51-.97.67-1.94l2.9.53Z"/>
        <path class="cls-1" d="m87.83,20.26c-.12-.7-.34-1.61-.57-2.22l-.81-2.3h-6.48l-.81,2.3c-.36,1.01-.45,1.33-.61,2.22h-3.32c.3-.57.71-1.52,1.07-2.49l4.45-12.2c.38-1.06.55-1.59.65-2.13h3.52c.1.51.22.85.69,2.13l4.5,12.2c.51,1.35.75,1.94,1.03,2.49h-3.32Zm-4.27-13.21c-.08-.23-.14-.49-.36-1.18q-.32.99-.38,1.18l-2.11,6.26h5.02l-2.17-6.26Z"/>
        <path class="cls-1" d="m100.72,17.52c0,1.14.04,1.88.16,2.75h-3.06c.12-.89.16-1.61.16-2.75V5.97h-2.73c-1.19,0-2.07.04-2.77.15v-2.83c.73.11,1.6.15,2.75.15h8.02c1.46,0,2.21-.04,2.98-.15v2.83c-.75-.11-1.52-.15-2.98-.15h-2.53v11.54Z"/>
        <path class="cls-1" d="m111.86,3.44c-.12.8-.16,1.46-.16,2.73v11.37c0,1.25.04,1.92.16,2.73h-3.08c.12-.8.16-1.48.16-2.73V6.16c0-1.31-.04-1.88-.16-2.73h3.08Z"/>
        <path class="cls-1" d="m127.85,5.21c1.48,1.54,2.27,3.85,2.27,6.6,0,5.35-2.98,8.82-7.57,8.82s-7.55-3.45-7.55-8.82c0-2.73.81-5.07,2.31-6.6,1.4-1.44,3.08-2.11,5.22-2.11s3.95.68,5.33,2.11Zm-.57,6.6c0-2.14-.57-3.85-1.6-4.93-.83-.85-1.9-1.29-3.12-1.29-2.92,0-4.76,2.41-4.76,6.24,0,2.11.59,3.89,1.64,4.99.83.85,1.9,1.29,3.14,1.29,2.9,0,4.7-2.41,4.7-6.3Z"/>
        <path class="cls-1" d="m143.85,20.26c-.34-.72-.71-1.33-1.3-2.26l-5.22-8.22c-.38-.63-.89-1.54-1.38-2.54q.02.3.08,1.08c.02.4.06,1.35.06,1.84v6.93c0,1.42.06,2.41.16,3.17h-2.96c.1-.7.16-1.75.16-3.19V6.16c0-1.1-.04-1.86-.16-2.73h3.16c.18.53.55,1.16,1.24,2.24l5.12,8.05c.49.76,1.13,1.86,1.58,2.71-.08-.82-.14-2.09-.14-2.98v-7.1c0-1.25-.04-2.11-.16-2.92h2.96c-.12.85-.16,1.63-.16,2.92v11.18c0,1.18.04,1.99.16,2.73h-3.2Z"/>
      </g>
    </g>
  </g>
</svg>